<?xml version="1.0" encoding="UTF-8"?>
<svg id="Layer_1" xmlns="http://www.w3.org/2000/svg" version="1.1" viewBox="0 0 24 24">
  <!-- Generator: Adobe Illustrator 29.6.1, SVG Export Plug-In . SVG Version: 2.1.1 Build 9)  -->
  <defs>
    <style>
      .st0 {
        fill: #999;
      }
    </style>
  </defs>
  <g>
    <path d="M2,12.1L5.6,1.6h2.8l3.7,10.6h-2.4l-1.7-5.1c-.2-.7-.4-1.4-.6-2.2-.2-.8-.4-1.6-.7-2.6h.5c-.2.9-.4,1.8-.6,2.6-.2.8-.4,1.5-.6,2.1l-1.6,5.1H2ZM4.2,9.7v-1.7h5.6v1.7h-5.6Z"/>
    <path d="M17.4,12.3c-.9,0-1.8-.2-2.5-.6s-1.3-1-1.8-1.8c-.4-.8-.6-1.8-.6-2.9s.2-2.1.6-2.9c.4-.8,1-1.4,1.8-1.9.7-.4,1.6-.6,2.5-.6s1.2,0,1.7.3c.5.2,1,.4,1.4.7.4.3.7.7,1,1.2.3.5.4,1,.5,1.6h-2.2c0-.3-.1-.6-.3-.8-.1-.2-.3-.4-.5-.6-.2-.2-.4-.3-.7-.4-.3,0-.5-.1-.8-.1-.5,0-1,.1-1.4.4-.4.3-.7.7-1,1.2-.2.5-.3,1.2-.3,1.9s.1,1.4.3,1.9.6.9,1,1.2.9.4,1.4.4.6,0,.8-.1.5-.2.7-.4c.2-.2.4-.4.5-.6.1-.2.2-.5.3-.8h2.2c0,.5-.2,1-.4,1.4-.2.4-.5.9-.9,1.2-.4.4-.8.6-1.4.8s-1.1.3-1.8.3Z"/>
  </g>
  <g>
    <path class="st0" d="M2,21.9v-8.1h5.1v1.1h-3.9v2.4h3.6v1.1h-3.6v2.5h3.9v1.1H2Z"/>
    <path class="st0" d="M8.8,21.9v-8.1h5.1v1.1h-3.9v2.4h3.6v1.1h-3.6v2.5h3.9v1.1h-5.2Z"/>
    <path class="st0" d="M18.9,22c-.7,0-1.4-.2-1.9-.5-.6-.3-1-.8-1.3-1.4-.3-.6-.5-1.4-.5-2.2s.2-1.6.5-2.2c.3-.6.7-1.1,1.3-1.4.5-.3,1.2-.5,1.9-.5s.8,0,1.2.2c.4.1.7.3,1,.6.3.2.5.5.7.9s.3.7.4,1.1h-1.3c0-.2-.2-.5-.3-.6-.1-.2-.3-.4-.5-.5-.2-.1-.4-.2-.6-.3-.2,0-.5-.1-.7-.1-.5,0-.9.1-1.2.3-.4.2-.7.6-.9,1s-.3,1-.3,1.7.1,1.2.3,1.7.5.8.9,1,.8.4,1.3.4.8,0,1.1-.3c.3-.2.6-.4.8-.8.2-.3.3-.7.3-1.2h.3c0,0-2.3,0-2.3,0v-1h3.2v.9c0,.7-.1,1.3-.4,1.8-.3.5-.7.9-1.2,1.2-.5.3-1.1.4-1.8.4Z"/>
  </g>
</svg>