<?xml version="1.0" encoding="UTF-8"?>
<svg id="Layer_1" xmlns="http://www.w3.org/2000/svg" version="1.1" viewBox="0 0 177 24">
  <!-- Generator: Adobe Illustrator 29.6.1, SVG Export Plug-In . SVG Version: 2.1.1 Build 9)  -->
  <defs>
    <style>
      .st0 {
        fill: #818991;
      }
    </style>
  </defs>
  <g>
    <path d="M3.5,17.9l3.8-11.3h3.6l3.9,11.3h-3l-1.6-4.9c-.3-.8-.5-1.7-.7-2.6-.2-.9-.5-1.9-.7-2.9h.6c-.2,1-.4,2-.7,2.9-.2.9-.4,1.8-.7,2.6l-1.5,4.9h-3ZM6.1,15.5v-2h6.1v2h-6.1Z"/>
    <path d="M18.9,18c-.6,0-1.1-.1-1.6-.4-.4-.3-.8-.6-1-1.1-.2-.5-.4-1-.4-1.7v-5.4h2.6v4.9c0,.5.1.8.4,1.1.2.3.6.4,1,.4s.5,0,.8-.2c.2-.1.4-.3.5-.5s.2-.5.2-.8v-4.8h2.6v8.5h-2.5v-2.1s0,0,0,0c-.2.7-.5,1.2-1,1.6-.4.4-1,.6-1.8.6Z"/>
    <path d="M30.4,9.4v2h-5.3v-2h5.3ZM26.2,7.4h2.6v7.9c0,.2,0,.4.2.5.1.1.3.2.5.2s.2,0,.4,0,.3,0,.4,0l.3,1.9c-.3,0-.6.1-.9.2-.3,0-.5,0-.8,0-.9,0-1.6-.2-2-.6-.5-.4-.7-1-.7-1.8V7.4Z"/>
    <path d="M35.6,18.1c-.9,0-1.6-.2-2.3-.5-.6-.4-1.1-.9-1.5-1.5-.3-.7-.5-1.4-.5-2.3s.2-1.6.5-2.3c.3-.7.8-1.2,1.5-1.5.6-.4,1.4-.6,2.3-.6s1.6.2,2.3.6c.6.4,1.1.9,1.5,1.5s.5,1.4.5,2.3-.2,1.6-.5,2.3-.8,1.2-1.5,1.5c-.6.4-1.4.5-2.3.5ZM35.6,16.1c.3,0,.6,0,.9-.3s.4-.5.5-.8c.1-.4.2-.8.2-1.2s0-.9-.2-1.2c-.1-.4-.3-.6-.5-.8s-.5-.3-.9-.3-.6,0-.9.3-.4.5-.5.8c-.1.4-.2.8-.2,1.2s0,.9.2,1.2c.1.4.3.6.5.8s.5.3.9.3Z"/>
    <path d="M45.2,18.1c-.9,0-1.6-.2-2.3-.5-.6-.4-1.1-.9-1.5-1.5-.3-.7-.5-1.4-.5-2.3s.2-1.6.5-2.3c.3-.7.8-1.2,1.5-1.5.6-.4,1.4-.6,2.3-.6s1,0,1.5.2.8.3,1.2.6c.3.3.6.6.8.9s.3.8.4,1.2l-2.4.4c0-.2-.1-.4-.2-.6s-.2-.3-.3-.4c-.1-.1-.3-.2-.4-.3s-.3,0-.5,0c-.3,0-.6,0-.9.3s-.4.5-.5.8-.2.8-.2,1.3,0,.9.2,1.3c.1.4.3.6.5.8.2.2.5.3.9.3s.4,0,.5,0,.3-.2.4-.3c.1-.1.2-.3.3-.5s.1-.4.2-.6l2.4.4c0,.5-.2.9-.4,1.3s-.5.7-.8,1c-.3.3-.7.5-1.2.6-.5.1-1,.2-1.5.2Z"/>
    <path d="M53.1,6.6v11.3h-2.6V6.6h2.6Z"/>
    <path d="M58.9,18.1c-.9,0-1.6-.2-2.3-.5-.6-.4-1.1-.9-1.5-1.5-.3-.7-.5-1.4-.5-2.3s.2-1.6.5-2.3c.3-.7.8-1.2,1.5-1.5.6-.4,1.4-.6,2.2-.6s1.1,0,1.6.3c.5.2.9.5,1.3.8.4.4.6.8.9,1.4.2.5.3,1.2.3,1.9v.7h-7.3v-1.5h6.1l-1.2.4c0-.4,0-.7-.2-1-.1-.3-.3-.5-.5-.7-.2-.2-.5-.2-.9-.2s-.6,0-.9.2-.4.4-.5.6c-.1.3-.2.6-.2,1v1.1c0,.4,0,.8.2,1.1.1.3.3.5.6.7.3.1.6.2.9.2s.5,0,.6,0,.4-.2.5-.3.2-.3.3-.5l2.4.4c-.1.5-.4.9-.7,1.3-.3.4-.8.6-1.3.8s-1.1.3-1.8.3Z"/>
    <path d="M66.8,18.1c-.5,0-1,0-1.4-.3-.4-.2-.8-.5-1-.8s-.4-.8-.4-1.4,0-.9.2-1.2c.2-.3.4-.6.7-.8.3-.2.6-.4,1-.5s.8-.2,1.2-.2c.5,0,.9,0,1.2-.1.3,0,.5-.1.6-.2.1,0,.2-.2.2-.4h0c0-.2,0-.4-.1-.5s-.2-.2-.4-.3c-.2,0-.4-.1-.6-.1s-.5,0-.6.1c-.2,0-.3.2-.5.3-.1.1-.2.3-.3.5l-2.4-.3c.1-.5.3-.9.7-1.3.3-.4.8-.7,1.3-.9.5-.2,1.1-.3,1.9-.3s1,0,1.5.2.9.3,1.2.5c.3.2.6.5.8.9s.3.8.3,1.2v5.8h-2.5v-1.2h0c-.2.3-.3.5-.6.7s-.5.3-.8.5-.7.2-1.1.2ZM67.6,16.3c.3,0,.6,0,.8-.2.2-.1.4-.3.6-.5.1-.2.2-.5.2-.7v-.8c0,0-.2,0-.3.1-.1,0-.2,0-.4,0-.1,0-.3,0-.4,0-.1,0-.3,0-.4,0-.3,0-.5,0-.7.2s-.3.2-.4.3-.1.3-.1.5,0,.3.1.5.2.2.4.3.3.1.6.1Z"/>
    <path d="M76.2,13.1v4.8h-2.6v-8.5h2.5v2.1c0,0,0,0,0,0,.2-.7.5-1.2,1-1.6.4-.4,1-.6,1.8-.6s1.1.1,1.5.4c.4.3.8.6,1,1.1.2.5.4,1,.4,1.7v5.4h-2.6v-4.9c0-.5-.1-.8-.4-1.1-.2-.3-.6-.4-1-.4s-.5,0-.8.2c-.2.1-.4.3-.5.5-.1.2-.2.5-.2.9Z"/>
    <path d="M83.4,17.9V6.6h7.8v2.2h-5.2v2.3h4.8v2.1h-4.8v2.5h5.2v2.2h-7.8Z"/>
    <path d="M92.9,17.9V6.6h7.8v2.2h-5.2v2.3h4.8v2.1h-4.8v2.5h5.2v2.2h-7.8Z"/>
    <path d="M107.5,18.1c-1.1,0-2-.2-2.8-.7-.8-.5-1.5-1.1-1.9-2-.5-.9-.7-1.9-.7-3.1s.2-2.3.7-3.2c.5-.9,1.1-1.5,1.9-2s1.7-.7,2.7-.7,1.3,0,1.8.3c.6.2,1.1.5,1.5.8.4.3.8.8,1.1,1.2.3.5.4,1,.5,1.5h-2.7c0-.2-.2-.4-.3-.6s-.3-.3-.5-.5c-.2-.1-.4-.2-.6-.3-.2,0-.5,0-.8,0-.5,0-1,.1-1.4.4-.4.3-.7.7-.9,1.2-.2.5-.3,1.1-.3,1.9s.1,1.4.3,1.9c.2.5.5.9.9,1.2.4.3.9.4,1.5.4s.9,0,1.3-.2c.4-.2.6-.4.8-.7.2-.3.3-.7.3-1.1h.5c0,0-2.8,0-2.8,0v-2h4.8v1.5c0,1-.2,1.9-.6,2.6-.4.7-1,1.3-1.8,1.7-.8.4-1.6.6-2.6.6Z"/>
  </g>
  <g>
    <path class="st0" d="M117.2,18.1V6.8h4.1c.9,0,1.6.2,2.2.5s1,.8,1.3,1.3c.3.6.4,1.2.4,1.9s-.1,1.3-.4,1.9-.7,1-1.3,1.3-1.3.5-2.2.5h-2.8v-1.5h2.6c.6,0,1,0,1.4-.3.3-.2.6-.5.8-.8.2-.3.2-.7.2-1.1s0-.8-.2-1.1c-.2-.3-.4-.6-.8-.8-.3-.2-.8-.3-1.4-.3h-2.1v9.8h-1.7Z"/>
    <path class="st0" d="M127.9,8.3c-.3,0-.5,0-.7-.3s-.3-.4-.3-.7.1-.5.3-.7.5-.3.7-.3.5,0,.7.3c.2.2.3.4.3.7s-.1.5-.3.7c-.2.2-.5.3-.7.3ZM127.1,18.1v-8.5h1.7v8.5h-1.7Z"/>
    <path class="st0" d="M131,21.3v-11.7h1.6v1.4h.1c.1-.2.2-.4.4-.6.2-.2.4-.4.8-.6.3-.2.7-.3,1.3-.3s1.3.2,1.8.5c.5.3,1,.8,1.3,1.5s.5,1.4.5,2.4-.2,1.7-.5,2.3-.7,1.2-1.3,1.5c-.5.4-1.1.5-1.8.5s-.9,0-1.3-.3c-.3-.2-.6-.4-.8-.6-.2-.2-.3-.4-.4-.6h0v4.5h-1.7ZM134.8,16.8c.5,0,.9-.1,1.2-.4.3-.3.6-.6.7-1.1.2-.5.2-1,.2-1.5s0-1.1-.2-1.5c-.2-.4-.4-.8-.7-1.1s-.7-.4-1.2-.4-.9.1-1.2.4-.6.6-.7,1-.2,1-.2,1.5,0,1.1.3,1.6c.2.4.4.8.7,1.1s.7.4,1.2.4Z"/>
    <path class="st0" d="M144.3,18.3c-.8,0-1.6-.2-2.2-.5-.6-.4-1.1-.9-1.4-1.5-.3-.7-.5-1.4-.5-2.3s.2-1.6.5-2.3.8-1.2,1.4-1.6,1.3-.6,2.1-.6,1,0,1.4.2c.5.2.9.4,1.2.7.4.3.6.8.9,1.3s.3,1.2.3,2v.6h-6.8v-1.2h5.9l-.8.4c0-.5,0-1-.2-1.4s-.4-.7-.7-.9-.7-.3-1.2-.3-.9.1-1.2.3-.6.5-.8.9c-.2.4-.3.8-.3,1.2v.8c0,.6,0,1.1.3,1.5.2.4.5.7.8.9.4.2.8.3,1.3.3s.6,0,.8-.1c.3,0,.5-.2.7-.4.2-.2.3-.4.4-.7l1.6.4c-.1.4-.4.8-.7,1.2-.3.3-.7.6-1.2.8-.5.2-1,.3-1.6.3Z"/>
    <path class="st0" d="M151.4,6.8v11.3h-1.7V6.8h1.7Z"/>
    <path class="st0" d="M154.5,8.3c-.3,0-.5,0-.7-.3s-.3-.4-.3-.7.1-.5.3-.7.5-.3.7-.3.5,0,.7.3c.2.2.3.4.3.7s-.1.5-.3.7c-.2.2-.5.3-.7.3ZM153.7,18.1v-8.5h1.7v8.5h-1.7Z"/>
    <path class="st0" d="M159.2,13.1v5h-1.7v-8.5h1.6v2.1s-.2,0-.2,0c.2-.8.6-1.3,1.1-1.7s1-.5,1.7-.5,1.1.1,1.5.4c.4.2.8.6,1,1.1.2.5.4,1.1.4,1.8v5.4h-1.7v-5.2c0-.6-.2-1.1-.5-1.4-.3-.3-.8-.5-1.3-.5s-.7,0-1,.2c-.3.2-.5.4-.7.7-.2.3-.3.7-.3,1.1Z"/>
    <path class="st0" d="M170.6,18.3c-.8,0-1.6-.2-2.2-.5-.6-.4-1.1-.9-1.4-1.5-.3-.7-.5-1.4-.5-2.3s.2-1.6.5-2.3.8-1.2,1.4-1.6,1.3-.6,2.1-.6,1,0,1.4.2c.5.2.9.4,1.2.7.4.3.6.8.9,1.3s.3,1.2.3,2v.6h-6.8v-1.2h5.9l-.8.4c0-.5,0-1-.2-1.4s-.4-.7-.7-.9-.7-.3-1.2-.3-.9.1-1.2.3-.6.5-.8.9c-.2.4-.3.8-.3,1.2v.8c0,.6,0,1.1.3,1.5.2.4.5.7.8.9.4.2.8.3,1.3.3s.6,0,.8-.1c.3,0,.5-.2.7-.4.2-.2.3-.4.4-.7l1.6.4c-.1.4-.4.8-.7,1.2-.3.3-.7.6-1.2.8-.5.2-1,.3-1.6.3Z"/>
  </g>
</svg>